<svg width="25" height="24" viewBox="0 0 25 24" fill="none" xmlns="http://www.w3.org/2000/svg">
<path d="M22 12C22 7.02944 17.9706 3 13 3C8.02944 3 4 7.02944 4 12C4 16.4922 7.29117 20.2155 11.5938 20.8906V14.6016H9.30859V12H11.5938V10.0172C11.5938 7.76156 12.9374 6.51562 14.9932 6.51562C15.9779 6.51562 17.0078 6.69141 17.0078 6.69141V8.90625H15.8729C14.7549 8.90625 14.4062 9.6 14.4062 10.3117V12H16.9023L16.5033 14.6016H14.4062V20.8906C18.7088 20.2155 22 16.4922 22 12Z" fill="#3843FF"/>
<path d="M16.5033 14.6016L16.9023 12H14.4062V10.3117C14.4062 9.6 14.7549 8.90625 15.8729 8.90625H17.0078V6.69141C17.0078 6.69141 15.9779 6.51562 14.9932 6.51562C12.9374 6.51562 11.5938 7.76156 11.5938 10.0172V12H9.30859V14.6016H11.5938V20.8906C12.5256 21.0365 13.4744 21.0365 14.4062 20.8906V14.6016H16.5033Z" fill="white"/>
</svg>
