<svg width="24" height="24" viewBox="0 0 24 24" fill="none" xmlns="http://www.w3.org/2000/svg">
<path d="M21 12.2C21 11.46 20.9387 10.92 20.8061 10.36H12.1837V13.7H17.2449C17.1429 14.53 16.5918 15.78 15.3673 16.62L15.3502 16.7318L18.0764 18.8015L18.2653 18.82C20 17.25 21 14.94 21 12.2Z" fill="#3843FF"/>
<path d="M12.1837 21C14.6632 21 16.7448 20.2 18.2653 18.82L15.3673 16.62C14.5918 17.15 13.551 17.52 12.1837 17.52C9.75512 17.52 7.69391 15.95 6.95914 13.78L6.85144 13.789L4.01664 15.939L3.97957 16.04C5.48976 18.9799 8.59181 21 12.1837 21Z" fill="#3BA935"/>
<path d="M6.95914 13.78C6.76527 13.22 6.65307 12.62 6.65307 12C6.65307 11.38 6.76527 10.78 6.94894 10.22L6.94381 10.1007L4.07348 7.91619L3.97957 7.95996C3.35715 9.17998 3 10.55 3 12C3 13.45 3.35715 14.82 3.97957 16.04L6.95914 13.78Z" fill="#FEA800"/>
<path d="M12.1837 6.47998C13.9081 6.47998 15.0714 7.20997 15.7347 7.82001L18.3265 5.34C16.7347 3.89 14.6632 3 12.1837 3C8.5918 3 5.48976 5.01998 3.97957 7.95996L6.94894 10.22C7.69391 8.05 9.75512 6.47998 12.1837 6.47998Z" fill="#E3524F"/>
</svg>
